<mxfile host="Electron" modified="2024-07-28T23:21:48.308Z" agent="Mozilla/5.0 (Windows NT 10.0; Win64; x64) AppleWebKit/537.36 (KHTML, like Gecko) draw.io/24.5.3 Chrome/124.0.6367.207 Electron/30.0.6 Safari/537.36" etag="Baf7QHGpi1uyVEfjEv9G" version="24.5.3" type="device" pages="2">
  <diagram id="C5RBs43oDa-KdzZeNtuy" name="Negocio">
    <mxGraphModel dx="2074" dy="836" grid="1" gridSize="10" guides="1" tooltips="1" connect="1" arrows="1" fold="1" page="1" pageScale="1" pageWidth="827" pageHeight="1169" math="0" shadow="0">
      <root>
        <mxCell id="WIyWlLk6GJQsqaUBKTNV-0" />
        <mxCell id="WIyWlLk6GJQsqaUBKTNV-1" parent="WIyWlLk6GJQsqaUBKTNV-0" />
        <mxCell id="uHOjvch6huQdP4HkppPC-7" value="&lt;font style=&quot;font-size: 13px;&quot;&gt;&lt;b&gt;External&lt;/b&gt;&lt;/font&gt;" style="sketch=0;outlineConnect=0;gradientColor=none;html=1;whiteSpace=wrap;fontSize=12;fontStyle=0;shape=mxgraph.aws4.group;grIcon=mxgraph.aws4.group_aws_cloud;strokeColor=#858B94;fillColor=none;verticalAlign=top;align=left;spacingLeft=30;fontColor=#858B94;dashed=0;" vertex="1" parent="WIyWlLk6GJQsqaUBKTNV-1">
          <mxGeometry x="220" y="380" width="330" height="230" as="geometry" />
        </mxCell>
        <mxCell id="9lcIvcFzCzesYRfLB7Rz-1" value="&lt;font style=&quot;font-size: 13px;&quot;&gt;&lt;b&gt;AWS Cloud&lt;/b&gt;&lt;/font&gt;" style="sketch=0;outlineConnect=0;gradientColor=none;html=1;whiteSpace=wrap;fontSize=12;fontStyle=0;shape=mxgraph.aws4.group;grIcon=mxgraph.aws4.group_aws_cloud;strokeColor=#858B94;fillColor=none;verticalAlign=top;align=left;spacingLeft=30;fontColor=#858B94;dashed=0;" parent="WIyWlLk6GJQsqaUBKTNV-1" vertex="1">
          <mxGeometry x="620" y="140" width="580" height="260" as="geometry" />
        </mxCell>
        <mxCell id="9lcIvcFzCzesYRfLB7Rz-5" value="&lt;font style=&quot;font-size: 13px;&quot;&gt;&lt;b&gt;VPC&lt;/b&gt;&lt;/font&gt;" style="sketch=0;outlineConnect=0;gradientColor=none;html=1;whiteSpace=wrap;fontSize=12;fontStyle=0;shape=mxgraph.aws4.group;grIcon=mxgraph.aws4.group_vpc;strokeColor=#879196;fillColor=none;verticalAlign=top;align=left;spacingLeft=30;fontColor=#879196;dashed=0;" parent="WIyWlLk6GJQsqaUBKTNV-1" vertex="1">
          <mxGeometry x="655" y="175" width="520" height="185" as="geometry" />
        </mxCell>
        <mxCell id="9lcIvcFzCzesYRfLB7Rz-7" value="&lt;font style=&quot;font-size: 13px;&quot;&gt;&lt;b&gt;External&amp;nbsp; PagBank&lt;/b&gt;&lt;/font&gt;" style="sketch=0;outlineConnect=0;gradientColor=none;html=1;whiteSpace=wrap;fontSize=12;fontStyle=0;shape=mxgraph.aws4.group;grIcon=mxgraph.aws4.group_aws_cloud;strokeColor=#858B94;fillColor=none;verticalAlign=top;align=left;spacingLeft=30;fontColor=#858B94;dashed=0;" parent="WIyWlLk6GJQsqaUBKTNV-1" vertex="1">
          <mxGeometry x="1235" y="140" width="280" height="435" as="geometry" />
        </mxCell>
        <mxCell id="9lcIvcFzCzesYRfLB7Rz-19" value="3" style="edgeStyle=orthogonalEdgeStyle;rounded=0;orthogonalLoop=1;jettySize=auto;html=1;" parent="WIyWlLk6GJQsqaUBKTNV-1" source="9lcIvcFzCzesYRfLB7Rz-2" target="9lcIvcFzCzesYRfLB7Rz-12" edge="1">
          <mxGeometry relative="1" as="geometry">
            <Array as="points">
              <mxPoint x="1225" y="270" />
              <mxPoint x="1225" y="270" />
            </Array>
          </mxGeometry>
        </mxCell>
        <mxCell id="oDdm1RIL-db-nkJqOXuv-4" style="edgeStyle=orthogonalEdgeStyle;rounded=0;orthogonalLoop=1;jettySize=auto;html=1;" parent="WIyWlLk6GJQsqaUBKTNV-1" source="9lcIvcFzCzesYRfLB7Rz-2" target="oDdm1RIL-db-nkJqOXuv-1" edge="1">
          <mxGeometry relative="1" as="geometry">
            <Array as="points">
              <mxPoint x="770" y="255" />
              <mxPoint x="770" y="255" />
            </Array>
          </mxGeometry>
        </mxCell>
        <mxCell id="oDdm1RIL-db-nkJqOXuv-5" value="1" style="edgeLabel;html=1;align=center;verticalAlign=middle;resizable=0;points=[];" parent="oDdm1RIL-db-nkJqOXuv-4" vertex="1" connectable="0">
          <mxGeometry x="0.3379" y="-1" relative="1" as="geometry">
            <mxPoint x="6" as="offset" />
          </mxGeometry>
        </mxCell>
        <mxCell id="uHOjvch6huQdP4HkppPC-9" value="2" style="edgeStyle=orthogonalEdgeStyle;rounded=0;orthogonalLoop=1;jettySize=auto;html=1;" edge="1" parent="WIyWlLk6GJQsqaUBKTNV-1" source="9lcIvcFzCzesYRfLB7Rz-2" target="9lcIvcFzCzesYRfLB7Rz-12">
          <mxGeometry relative="1" as="geometry">
            <Array as="points">
              <mxPoint x="1130" y="250" />
              <mxPoint x="1130" y="250" />
            </Array>
          </mxGeometry>
        </mxCell>
        <mxCell id="9lcIvcFzCzesYRfLB7Rz-2" value="Amazon EKS" style="sketch=0;outlineConnect=0;fontColor=#232F3E;gradientColor=none;strokeColor=#ffffff;fillColor=#232F3E;dashed=0;verticalLabelPosition=middle;verticalAlign=bottom;align=center;html=1;whiteSpace=wrap;fontSize=10;fontStyle=1;spacing=3;shape=mxgraph.aws4.productIcon;prIcon=mxgraph.aws4.eks;" parent="WIyWlLk6GJQsqaUBKTNV-1" vertex="1">
          <mxGeometry x="875" y="225" width="70" height="90" as="geometry" />
        </mxCell>
        <mxCell id="9lcIvcFzCzesYRfLB7Rz-12" value="" style="outlineConnect=0;dashed=0;verticalLabelPosition=bottom;verticalAlign=top;align=center;html=1;shape=mxgraph.aws3.management_console;fillColor=#D2D3D3;gradientColor=none;" parent="WIyWlLk6GJQsqaUBKTNV-1" vertex="1">
          <mxGeometry x="1310" y="239.38" width="63" height="61.25" as="geometry" />
        </mxCell>
        <mxCell id="9lcIvcFzCzesYRfLB7Rz-6" value="" style="shape=image;verticalLabelPosition=bottom;labelBackgroundColor=default;verticalAlign=top;aspect=fixed;imageAspect=0;image=https://logodownload.org/wp-content/uploads/2019/09/pagbank-logo-0-1.png;" parent="WIyWlLk6GJQsqaUBKTNV-1" vertex="1">
          <mxGeometry x="1340" y="185" width="112.5" height="112.5" as="geometry" />
        </mxCell>
        <mxCell id="oDdm1RIL-db-nkJqOXuv-0" value="&lt;font style=&quot;font-size: 13px;&quot;&gt;&lt;b&gt;External&lt;/b&gt;&lt;/font&gt;" style="sketch=0;outlineConnect=0;gradientColor=none;html=1;whiteSpace=wrap;fontSize=12;fontStyle=0;shape=mxgraph.aws4.group;grIcon=mxgraph.aws4.group_aws_cloud;strokeColor=#858B94;fillColor=none;verticalAlign=top;align=left;spacingLeft=30;fontColor=#858B94;dashed=0;" parent="WIyWlLk6GJQsqaUBKTNV-1" vertex="1">
          <mxGeometry x="220" y="140" width="330" height="230" as="geometry" />
        </mxCell>
        <mxCell id="oDdm1RIL-db-nkJqOXuv-3" style="edgeStyle=orthogonalEdgeStyle;rounded=0;orthogonalLoop=1;jettySize=auto;html=1;" parent="WIyWlLk6GJQsqaUBKTNV-1" source="oDdm1RIL-db-nkJqOXuv-1" target="9lcIvcFzCzesYRfLB7Rz-2" edge="1">
          <mxGeometry relative="1" as="geometry" />
        </mxCell>
        <mxCell id="uHOjvch6huQdP4HkppPC-11" value="5" style="edgeLabel;html=1;align=center;verticalAlign=middle;resizable=0;points=[];" vertex="1" connectable="0" parent="oDdm1RIL-db-nkJqOXuv-3">
          <mxGeometry x="-0.3011" y="-3" relative="1" as="geometry">
            <mxPoint as="offset" />
          </mxGeometry>
        </mxCell>
        <mxCell id="oDdm1RIL-db-nkJqOXuv-1" value="Totem" style="fontColor=#0066CC;verticalAlign=top;verticalLabelPosition=bottom;labelPosition=center;align=center;html=1;outlineConnect=0;fillColor=#CCCCCC;strokeColor=#6881B3;gradientColor=none;gradientDirection=north;strokeWidth=2;shape=mxgraph.networks.pc;" parent="WIyWlLk6GJQsqaUBKTNV-1" vertex="1">
          <mxGeometry x="340" y="235" width="100" height="70" as="geometry" />
        </mxCell>
        <mxCell id="oDdm1RIL-db-nkJqOXuv-13" value="Mobile" style="sketch=0;points=[[0,0,0],[0.25,0,0],[0.5,0,0],[0.75,0,0],[1,0,0],[0,1,0],[0.25,1,0],[0.5,1,0],[0.75,1,0],[1,1,0],[0,0.25,0],[0,0.5,0],[0,0.75,0],[1,0.25,0],[1,0.5,0],[1,0.75,0]];outlineConnect=0;fontColor=#232F3E;fillColor=#DD344C;strokeColor=#ffffff;dashed=0;verticalLabelPosition=bottom;verticalAlign=top;align=center;html=1;fontSize=12;fontStyle=0;aspect=fixed;shape=mxgraph.aws4.resourceIcon;resIcon=mxgraph.aws4.mobile;" parent="WIyWlLk6GJQsqaUBKTNV-1" vertex="1">
          <mxGeometry x="340" y="460" width="60" height="60" as="geometry" />
        </mxCell>
        <mxCell id="oDdm1RIL-db-nkJqOXuv-15" style="edgeStyle=orthogonalEdgeStyle;rounded=0;orthogonalLoop=1;jettySize=auto;html=1;entryX=0.5;entryY=1;entryDx=0;entryDy=0;entryPerimeter=0;" parent="WIyWlLk6GJQsqaUBKTNV-1" edge="1">
          <mxGeometry relative="1" as="geometry">
            <Array as="points">
              <mxPoint x="1342" y="494.37" />
            </Array>
            <mxPoint x="400" y="494.37" as="sourcePoint" />
            <mxPoint x="1341.5" y="330.0000000000001" as="targetPoint" />
          </mxGeometry>
        </mxCell>
        <mxCell id="oDdm1RIL-db-nkJqOXuv-16" value="4" style="edgeLabel;html=1;align=center;verticalAlign=middle;resizable=0;points=[];" parent="oDdm1RIL-db-nkJqOXuv-15" vertex="1" connectable="0">
          <mxGeometry x="-0.145" y="-4" relative="1" as="geometry">
            <mxPoint as="offset" />
          </mxGeometry>
        </mxCell>
        <mxCell id="uHOjvch6huQdP4HkppPC-0" value="Cliente" style="verticalLabelPosition=bottom;shadow=0;dashed=0;align=center;html=1;verticalAlign=top;strokeWidth=1;shape=mxgraph.mockup.containers.userFemale;strokeColor=#666666;strokeColor2=#008cff;" vertex="1" parent="WIyWlLk6GJQsqaUBKTNV-1">
          <mxGeometry x="250" y="220.63" width="80" height="80" as="geometry" />
        </mxCell>
      </root>
    </mxGraphModel>
  </diagram>
  <diagram id="YpfhoTUgLiP0qn_BGZKY" name="Infra K8s">
    <mxGraphModel dx="2555" dy="697" grid="1" gridSize="10" guides="1" tooltips="1" connect="1" arrows="1" fold="1" page="1" pageScale="1" pageWidth="827" pageHeight="1169" math="0" shadow="0">
      <root>
        <mxCell id="0" />
        <mxCell id="1" parent="0" />
        <mxCell id="Hvb_FPghs4UdrtpxYr0O-1" value="&lt;b&gt;&lt;font style=&quot;font-size: 14px;&quot;&gt;AWS Cloud&lt;/font&gt;&lt;/b&gt;" style="sketch=0;outlineConnect=0;gradientColor=none;html=1;whiteSpace=wrap;fontSize=12;fontStyle=0;shape=mxgraph.aws4.group;grIcon=mxgraph.aws4.group_aws_cloud;strokeColor=#858B94;fillColor=none;verticalAlign=top;align=left;spacingLeft=30;fontColor=#948f84;dashed=0;" parent="1" vertex="1">
          <mxGeometry x="150" y="390" width="780" height="470" as="geometry" />
        </mxCell>
        <mxCell id="Hvb_FPghs4UdrtpxYr0O-4" value="&lt;b&gt;&lt;font style=&quot;font-size: 14px;&quot;&gt;EKS Control plane&lt;/font&gt;&lt;/b&gt;" style="sketch=0;outlineConnect=0;gradientColor=none;html=1;whiteSpace=wrap;fontSize=12;fontStyle=0;shape=mxgraph.aws4.group;grIcon=mxgraph.aws4.group_aws_cloud;strokeColor=#858B94;fillColor=none;verticalAlign=top;align=left;spacingLeft=30;fontColor=#858B94;dashed=0;" parent="1" vertex="1">
          <mxGeometry x="175" y="429.38" width="730" height="410" as="geometry" />
        </mxCell>
        <mxCell id="OABKr9YVx_Zhjlt5pyqK-1" value="&lt;font style=&quot;font-size: 14px;&quot;&gt;&lt;b&gt;External&amp;nbsp; API PagBank&lt;/b&gt;&lt;/font&gt;" style="sketch=0;outlineConnect=0;gradientColor=none;html=1;whiteSpace=wrap;fontSize=12;fontStyle=0;shape=mxgraph.aws4.group;grIcon=mxgraph.aws4.group_aws_cloud;strokeColor=#858B94;fillColor=none;verticalAlign=top;align=left;spacingLeft=30;fontColor=#858B94;dashed=0;" parent="1" vertex="1">
          <mxGeometry x="-290" y="590" width="360" height="270" as="geometry" />
        </mxCell>
        <mxCell id="OABKr9YVx_Zhjlt5pyqK-2" value="" style="outlineConnect=0;dashed=0;verticalLabelPosition=bottom;verticalAlign=top;align=center;html=1;shape=mxgraph.aws3.management_console;fillColor=#D2D3D3;gradientColor=none;" parent="1" vertex="1">
          <mxGeometry x="-160" y="700" width="60" height="55.62" as="geometry" />
        </mxCell>
        <mxCell id="ReFRfZ2mL8UijO5SGd9H-39" style="edgeStyle=orthogonalEdgeStyle;rounded=0;orthogonalLoop=1;jettySize=auto;html=1;exitX=0.017;exitY=0.458;exitDx=0;exitDy=0;exitPerimeter=0;" edge="1" parent="1" source="ReFRfZ2mL8UijO5SGd9H-1" target="OABKr9YVx_Zhjlt5pyqK-1">
          <mxGeometry relative="1" as="geometry">
            <Array as="points">
              <mxPoint x="211" y="585" />
              <mxPoint x="140" y="585" />
              <mxPoint x="140" y="710" />
            </Array>
          </mxGeometry>
        </mxCell>
        <mxCell id="ReFRfZ2mL8UijO5SGd9H-2" value="" style="rounded=1;whiteSpace=wrap;html=1;" vertex="1" parent="1">
          <mxGeometry x="230" y="514.38" width="276" height="295.62" as="geometry" />
        </mxCell>
        <mxCell id="OABKr9YVx_Zhjlt5pyqK-3" value="" style="shape=image;verticalLabelPosition=bottom;labelBackgroundColor=default;verticalAlign=top;aspect=fixed;imageAspect=0;image=https://logodownload.org/wp-content/uploads/2019/09/pagbank-logo-0-1.png;" parent="1" vertex="1">
          <mxGeometry x="-130" y="643.12" width="112.5" height="112.5" as="geometry" />
        </mxCell>
        <mxCell id="ReFRfZ2mL8UijO5SGd9H-1" value="" style="aspect=fixed;sketch=0;html=1;dashed=0;whitespace=wrap;verticalLabelPosition=bottom;verticalAlign=top;fillColor=#2875E2;strokeColor=#ffffff;points=[[0.005,0.63,0],[0.1,0.2,0],[0.9,0.2,0],[0.5,0,0],[0.995,0.63,0],[0.72,0.99,0],[0.5,1,0],[0.28,0.99,0]];shape=mxgraph.kubernetes.icon2;kubernetesLabel=1;prIcon=svc" vertex="1" parent="1">
          <mxGeometry x="210" y="561" width="50" height="48" as="geometry" />
        </mxCell>
        <mxCell id="ReFRfZ2mL8UijO5SGd9H-3" value="" style="aspect=fixed;sketch=0;html=1;dashed=0;whitespace=wrap;verticalLabelPosition=bottom;verticalAlign=top;fillColor=#2875E2;strokeColor=#ffffff;points=[[0.005,0.63,0],[0.1,0.2,0],[0.9,0.2,0],[0.5,0,0],[0.995,0.63,0],[0.72,0.99,0],[0.5,1,0],[0.28,0.99,0]];shape=mxgraph.kubernetes.icon2;kubernetesLabel=1;prIcon=deploy" vertex="1" parent="1">
          <mxGeometry x="290" y="490" width="50" height="48" as="geometry" />
        </mxCell>
        <mxCell id="ReFRfZ2mL8UijO5SGd9H-5" value="" style="aspect=fixed;sketch=0;html=1;dashed=0;whitespace=wrap;verticalLabelPosition=bottom;verticalAlign=top;fillColor=#2875E2;strokeColor=#ffffff;points=[[0.005,0.63,0],[0.1,0.2,0],[0.9,0.2,0],[0.5,0,0],[0.995,0.63,0],[0.72,0.99,0],[0.5,1,0],[0.28,0.99,0]];shape=mxgraph.kubernetes.icon2;kubernetesLabel=1;prIcon=hpa" vertex="1" parent="1">
          <mxGeometry x="290" y="561" width="50" height="48" as="geometry" />
        </mxCell>
        <mxCell id="ReFRfZ2mL8UijO5SGd9H-6" value="" style="aspect=fixed;sketch=0;html=1;dashed=0;whitespace=wrap;verticalLabelPosition=bottom;verticalAlign=top;fillColor=#2875E2;strokeColor=#ffffff;points=[[0.005,0.63,0],[0.1,0.2,0],[0.9,0.2,0],[0.5,0,0],[0.995,0.63,0],[0.72,0.99,0],[0.5,1,0],[0.28,0.99,0]];shape=mxgraph.kubernetes.icon2;kubernetesLabel=1;prIcon=cm" vertex="1" parent="1">
          <mxGeometry x="414" y="561" width="50" height="48" as="geometry" />
        </mxCell>
        <mxCell id="ReFRfZ2mL8UijO5SGd9H-7" value="" style="aspect=fixed;sketch=0;html=1;dashed=0;whitespace=wrap;verticalLabelPosition=bottom;verticalAlign=top;fillColor=#2875E2;strokeColor=#ffffff;points=[[0.005,0.63,0],[0.1,0.2,0],[0.9,0.2,0],[0.5,0,0],[0.995,0.63,0],[0.72,0.99,0],[0.5,1,0],[0.28,0.99,0]];shape=mxgraph.kubernetes.icon2;prIcon=secret" vertex="1" parent="1">
          <mxGeometry x="350" y="561" width="50" height="48" as="geometry" />
        </mxCell>
        <mxCell id="ReFRfZ2mL8UijO5SGd9H-8" value="" style="rounded=1;whiteSpace=wrap;html=1;" vertex="1" parent="1">
          <mxGeometry x="590" y="514.38" width="270" height="285.62" as="geometry" />
        </mxCell>
        <mxCell id="ReFRfZ2mL8UijO5SGd9H-13" value="" style="aspect=fixed;sketch=0;html=1;dashed=0;whitespace=wrap;verticalLabelPosition=bottom;verticalAlign=top;fillColor=#2875E2;strokeColor=#ffffff;points=[[0.005,0.63,0],[0.1,0.2,0],[0.9,0.2,0],[0.5,0,0],[0.995,0.63,0],[0.72,0.99,0],[0.5,1,0],[0.28,0.99,0]];shape=mxgraph.kubernetes.icon2;kubernetesLabel=1;prIcon=deploy" vertex="1" parent="1">
          <mxGeometry x="650" y="481" width="50" height="48" as="geometry" />
        </mxCell>
        <mxCell id="ReFRfZ2mL8UijO5SGd9H-14" value="" style="aspect=fixed;sketch=0;html=1;dashed=0;whitespace=wrap;verticalLabelPosition=bottom;verticalAlign=top;fillColor=#2875E2;strokeColor=#ffffff;points=[[0.005,0.63,0],[0.1,0.2,0],[0.9,0.2,0],[0.5,0,0],[0.995,0.63,0],[0.72,0.99,0],[0.5,1,0],[0.28,0.99,0]];shape=mxgraph.kubernetes.icon2;kubernetesLabel=1;prIcon=svc" vertex="1" parent="1">
          <mxGeometry x="570" y="574.13" width="50" height="48" as="geometry" />
        </mxCell>
        <mxCell id="ReFRfZ2mL8UijO5SGd9H-17" value="" style="aspect=fixed;sketch=0;html=1;dashed=0;whitespace=wrap;verticalLabelPosition=bottom;verticalAlign=top;fillColor=#2875E2;strokeColor=#ffffff;points=[[0.005,0.63,0],[0.1,0.2,0],[0.9,0.2,0],[0.5,0,0],[0.995,0.63,0],[0.72,0.99,0],[0.5,1,0],[0.28,0.99,0]];shape=mxgraph.kubernetes.icon2;kubernetesLabel=1;prIcon=pvc" vertex="1" parent="1">
          <mxGeometry x="720" y="561" width="50" height="48" as="geometry" />
        </mxCell>
        <mxCell id="ReFRfZ2mL8UijO5SGd9H-18" style="edgeStyle=orthogonalEdgeStyle;rounded=0;orthogonalLoop=1;jettySize=auto;html=1;entryX=0.005;entryY=0.63;entryDx=0;entryDy=0;entryPerimeter=0;" edge="1" parent="1" source="ReFRfZ2mL8UijO5SGd9H-2" target="ReFRfZ2mL8UijO5SGd9H-14">
          <mxGeometry relative="1" as="geometry" />
        </mxCell>
        <mxCell id="ReFRfZ2mL8UijO5SGd9H-19" value="" style="aspect=fixed;sketch=0;html=1;dashed=0;whitespace=wrap;verticalLabelPosition=bottom;verticalAlign=top;fillColor=#2875E2;strokeColor=#ffffff;points=[[0.005,0.63,0],[0.1,0.2,0],[0.9,0.2,0],[0.5,0,0],[0.995,0.63,0],[0.72,0.99,0],[0.5,1,0],[0.28,0.99,0]];shape=mxgraph.kubernetes.icon2;prIcon=secret" vertex="1" parent="1">
          <mxGeometry x="790" y="561" width="50" height="48" as="geometry" />
        </mxCell>
        <mxCell id="ReFRfZ2mL8UijO5SGd9H-20" value="" style="aspect=fixed;sketch=0;html=1;dashed=0;whitespace=wrap;verticalLabelPosition=bottom;verticalAlign=top;fillColor=#2875E2;strokeColor=#ffffff;points=[[0.005,0.63,0],[0.1,0.2,0],[0.9,0.2,0],[0.5,0,0],[0.995,0.63,0],[0.72,0.99,0],[0.5,1,0],[0.28,0.99,0]];shape=mxgraph.kubernetes.icon2;kubernetesLabel=1;prIcon=cm" vertex="1" parent="1">
          <mxGeometry x="650" y="561" width="50" height="48" as="geometry" />
        </mxCell>
        <mxCell id="ReFRfZ2mL8UijO5SGd9H-21" value="" style="rounded=0;whiteSpace=wrap;html=1;" vertex="1" parent="1">
          <mxGeometry x="260" y="660" width="230" height="80" as="geometry" />
        </mxCell>
        <mxCell id="ReFRfZ2mL8UijO5SGd9H-22" value="" style="aspect=fixed;sketch=0;html=1;dashed=0;whitespace=wrap;verticalLabelPosition=bottom;verticalAlign=top;fillColor=#2875E2;strokeColor=#ffffff;points=[[0.005,0.63,0],[0.1,0.2,0],[0.9,0.2,0],[0.5,0,0],[0.995,0.63,0],[0.72,0.99,0],[0.5,1,0],[0.28,0.99,0]];shape=mxgraph.kubernetes.icon2;kubernetesLabel=1;prIcon=pod" vertex="1" parent="1">
          <mxGeometry x="280" y="676" width="50" height="48" as="geometry" />
        </mxCell>
        <mxCell id="ReFRfZ2mL8UijO5SGd9H-23" value="" style="aspect=fixed;sketch=0;html=1;dashed=0;whitespace=wrap;verticalLabelPosition=bottom;verticalAlign=top;fillColor=#2875E2;strokeColor=#ffffff;points=[[0.005,0.63,0],[0.1,0.2,0],[0.9,0.2,0],[0.5,0,0],[0.995,0.63,0],[0.72,0.99,0],[0.5,1,0],[0.28,0.99,0]];shape=mxgraph.kubernetes.icon2;kubernetesLabel=1;prIcon=pod" vertex="1" parent="1">
          <mxGeometry x="350" y="676" width="50" height="48" as="geometry" />
        </mxCell>
        <mxCell id="ReFRfZ2mL8UijO5SGd9H-24" value="" style="aspect=fixed;sketch=0;html=1;dashed=0;whitespace=wrap;verticalLabelPosition=bottom;verticalAlign=top;fillColor=#2875E2;strokeColor=#ffffff;points=[[0.005,0.63,0],[0.1,0.2,0],[0.9,0.2,0],[0.5,0,0],[0.995,0.63,0],[0.72,0.99,0],[0.5,1,0],[0.28,0.99,0]];shape=mxgraph.kubernetes.icon2;kubernetesLabel=1;prIcon=pod" vertex="1" parent="1">
          <mxGeometry x="420" y="676" width="50" height="48" as="geometry" />
        </mxCell>
        <mxCell id="ReFRfZ2mL8UijO5SGd9H-25" value="" style="aspect=fixed;sketch=0;html=1;dashed=0;whitespace=wrap;verticalLabelPosition=bottom;verticalAlign=top;fillColor=#2875E2;strokeColor=#ffffff;points=[[0.005,0.63,0],[0.1,0.2,0],[0.9,0.2,0],[0.5,0,0],[0.995,0.63,0],[0.72,0.99,0],[0.5,1,0],[0.28,0.99,0]];shape=mxgraph.kubernetes.icon2;kubernetesLabel=1;prIcon=rs" vertex="1" parent="1">
          <mxGeometry x="240" y="640" width="50" height="48" as="geometry" />
        </mxCell>
        <mxCell id="ReFRfZ2mL8UijO5SGd9H-26" value="API" style="text;html=1;align=center;verticalAlign=middle;whiteSpace=wrap;rounded=0;glass=0;fontStyle=1;fontSize=14;" vertex="1" parent="1">
          <mxGeometry x="240" y="490" width="60" height="30" as="geometry" />
        </mxCell>
        <mxCell id="ReFRfZ2mL8UijO5SGd9H-27" value="" style="rounded=0;whiteSpace=wrap;html=1;" vertex="1" parent="1">
          <mxGeometry x="610" y="660" width="230" height="80" as="geometry" />
        </mxCell>
        <mxCell id="ReFRfZ2mL8UijO5SGd9H-16" value="" style="aspect=fixed;sketch=0;html=1;dashed=0;whitespace=wrap;verticalLabelPosition=bottom;verticalAlign=top;fillColor=#2875E2;strokeColor=#ffffff;points=[[0.005,0.63,0],[0.1,0.2,0],[0.9,0.2,0],[0.5,0,0],[0.995,0.63,0],[0.72,0.99,0],[0.5,1,0],[0.28,0.99,0]];shape=mxgraph.kubernetes.icon2;kubernetesLabel=1;prIcon=pod" vertex="1" parent="1">
          <mxGeometry x="700" y="676" width="50" height="48" as="geometry" />
        </mxCell>
        <mxCell id="ReFRfZ2mL8UijO5SGd9H-28" value="" style="aspect=fixed;sketch=0;html=1;dashed=0;whitespace=wrap;verticalLabelPosition=bottom;verticalAlign=top;fillColor=#2875E2;strokeColor=#ffffff;points=[[0.005,0.63,0],[0.1,0.2,0],[0.9,0.2,0],[0.5,0,0],[0.995,0.63,0],[0.72,0.99,0],[0.5,1,0],[0.28,0.99,0]];shape=mxgraph.kubernetes.icon2;kubernetesLabel=1;prIcon=rs" vertex="1" parent="1">
          <mxGeometry x="600" y="640" width="50" height="48" as="geometry" />
        </mxCell>
        <mxCell id="ReFRfZ2mL8UijO5SGd9H-29" value="totem" style="image;points=[];aspect=fixed;html=1;align=center;shadow=0;dashed=0;image=img/lib/allied_telesis/computer_and_terminals/Personal_Computer_with_Server.svg;" vertex="1" parent="1">
          <mxGeometry x="-120" y="400" width="62.400000000000006" height="62.400000000000006" as="geometry" />
        </mxCell>
        <mxCell id="ReFRfZ2mL8UijO5SGd9H-31" value="DB" style="text;html=1;align=center;verticalAlign=middle;whiteSpace=wrap;rounded=0;glass=0;fontStyle=1;fontSize=14;" vertex="1" parent="1">
          <mxGeometry x="600" y="490" width="60" height="30" as="geometry" />
        </mxCell>
        <mxCell id="ReFRfZ2mL8UijO5SGd9H-40" value="&lt;font style=&quot;font-size: 14px;&quot;&gt;&lt;b&gt;External Totem&lt;/b&gt;&lt;/font&gt;" style="sketch=0;outlineConnect=0;gradientColor=none;html=1;whiteSpace=wrap;fontSize=12;fontStyle=0;shape=mxgraph.aws4.group;grIcon=mxgraph.aws4.group_aws_cloud;strokeColor=#858B94;fillColor=none;verticalAlign=top;align=left;spacingLeft=30;fontColor=#858B94;dashed=0;" vertex="1" parent="1">
          <mxGeometry x="-290" y="321" width="360" height="240" as="geometry" />
        </mxCell>
        <mxCell id="ReFRfZ2mL8UijO5SGd9H-43" style="edgeStyle=orthogonalEdgeStyle;rounded=0;orthogonalLoop=1;jettySize=auto;html=1;entryX=0.017;entryY=0.493;entryDx=0;entryDy=0;entryPerimeter=0;" edge="1" parent="1" source="ReFRfZ2mL8UijO5SGd9H-40" target="ReFRfZ2mL8UijO5SGd9H-1">
          <mxGeometry relative="1" as="geometry" />
        </mxCell>
      </root>
    </mxGraphModel>
  </diagram>
</mxfile>
